<?xml version="1.0" encoding="UTF-8"?>
<svg id="Layer_1" data-name="Layer 1" xmlns="http://www.w3.org/2000/svg" viewBox="0 0 415.53 437.5">
  <defs>
    <style>
      .cls-1 {
        fill: #fff;
      }

      .cls-2 {
        fill: #231f20;
        stroke: #231f20;
        stroke-miterlimit: 10;
        stroke-width: .25px;
      }
    </style>
  </defs>
  <path class="cls-1" d="M415.53,0v437.5H0V0h415.53ZM51.26,256.28H10.98v99.76c24.44,12.01,47.24,12.26,72.33.97,9.27,5.44-5.17,35.86-2.75,38.38l53.16-6.54c22.94,16.83,47.15,32.54,74.05,42.35,14.08-4.9,27.68-11.65,40.59-19.01,6.09-3.47,32.73-22.65,35.14-23.18,1.93-.42,14.29.65,17.63.91,11.65.89,24.05,4.03,35.7,5.47-1.15-13.02-10.33-25.59-5.46-38.44,11.95,1.88,27.48,9.63,39.34,9.31,9.07-.24,27.23-6.53,35.69-10.22v-99.76h-42.1c17.11-59.06,21.67-121.67,16.31-182.89L207.74,21.95l-98.4,29.74-14.16,16.03,114.35-33.02,158.43,48.57c2.01,1.35,1.66,3.4,1.9,5.42,1.99,16.13.79,47.14-.01,64.26-1.6,34.32-8.56,68.5-17.44,101.55l-8.3.85c9.24-32.26,15.71-65.28,17.43-98.87-.19-1.91-20.87-22.82-22.94-23.87-5.21-2.65-20.93,16.68-26.78,19.05l-19.84-15.85-32.02,23.46-28.41-40.22-66.86,77.88c-3.84,1.92-10.61-5.74-13.68-8.28-1.76-.02-15.33,24.39-17.31.61-1.56-18.68,21.18-7.14,28.96-21.97,2.47-4.72,3.85-7.79-.89-11.45-8.23-6.34-19.73-12.76-28.14-19.43,16.46-11.99,38.91-16.87,34.75-43.02l-7.31,15.54-12.8,8.23c8.72-15.81,10.75-41.47-5.47-53.07l5.46,27.46c-7.53-5.45-13.12-14.8-23.77-14.63l12.5,12.19c11.01,15.1,5.06,29.66-8.76,40.05-14.8,11.12-5.53-12.79-5.99-17.97-.42-4.77-4.12-11.04-7.83-14.14,1.92,10.76,2.44,31.58-13.65,20.96-13.25-8.74-9.91-25.54-3.75-37.44-8.02,5-13.87,14-12.81,23.8-12.12-11.39-1.26-32.57,7.34-43.91l-11.94,9.09-10.02,14.68c-1.33-13.29,2.32-24.71,7.29-36.6-20.8,16.3-19.49,48.25-.98,65.98,10.34,9.9,25.54,12.72,33.95,23.7-11.85-5.03-23.62-9.52-36.6-10.96-.41,12.47,9.01,26.46,21.96,27.47.19,7.94-6.75,13.22-10.04,20.15-5.1,10.76-5.56,20.74-9.23,31.04-2.14,6-8.61,13.24-9.65,17.83-2.26,10.07,4.68,22.68,6.98,32.53-10.31,5.79-13.37-17.19-15.3-24.97-8.05-32.54-9.56-66.1-12.26-99.4l2.12-45.63c9.52-3.77,7.23-8.19,8.92-17.6l-19.79,5.82c-4.81,34.56-1.47,70.1-.3,104.9l14.62,77.82ZM208.68,42.1v89.7l22.83-23.76,28.45,38.39,1.83-9.14c4.99,1.48,5.27,2.61,6.38,7.31l23.83-17.86,19.29,15.32,24.87-21.12,26.29,23.66v-48.51c0-1.36-2.91-7.06-4.86-7.95l-46.96-13.21c-3.17.64-32.13,46.8-37.08,53.09-4.29,5.45-9.13,4.34-7.37-1.84l34.02-56.61-91.53-27.47Z"/>
  <path d="M51.26,256.28l-14.62-77.82c-1.17-34.8-4.51-70.34.3-104.9l19.79-5.82c-1.69,9.41.6,13.83-8.92,17.6l-2.12,45.63c2.71,33.31,4.22,66.86,12.26,99.4,1.92,7.78,4.99,30.76,15.3,24.97-2.3-9.85-9.24-22.47-6.98-32.53,1.03-4.59,7.51-11.83,9.65-17.83,3.67-10.3,4.13-20.28,9.23-31.04,3.29-6.93,10.23-12.21,10.04-20.15-12.95-1-22.37-14.99-21.96-27.47,12.98,1.44,24.75,5.93,36.6,10.96-8.41-10.97-23.61-13.8-33.95-23.7-18.51-17.73-19.82-49.68.98-65.98-4.97,11.89-8.63,23.31-7.29,36.6l10.02-14.68,11.94-9.09c-8.6,11.34-19.46,32.53-7.34,43.91-1.06-9.79,4.79-18.8,12.81-23.8-6.15,11.9-9.5,28.69,3.75,37.44,16.09,10.62,15.57-10.2,13.65-20.96,3.71,3.1,7.41,9.36,7.83,14.14.46,5.18-8.82,29.09,5.99,17.97,13.83-10.39,19.78-24.95,8.76-40.05l-12.5-12.19c10.65-.17,16.24,9.18,23.77,14.63l-5.46-27.46c16.22,11.6,14.2,37.25,5.47,53.07l12.8-8.23,7.31-15.54c4.16,26.15-18.3,31.02-34.75,43.02,8.41,6.67,19.91,13.09,28.14,19.43,4.75,3.66,3.36,6.73.89,11.45-7.78,14.84-30.52,3.29-28.96,21.97,1.99,23.79,15.56-.63,17.31-.61,3.07,2.54,9.84,10.2,13.68,8.28l66.86-77.88,28.41,40.22,32.02-23.46,19.84,15.85c5.84-2.37,21.56-21.69,26.78-19.05,2.07,1.05,22.75,21.97,22.94,23.87-1.73,33.59-8.19,66.62-17.43,98.87l8.3-.85c8.88-33.04,15.83-67.23,17.44-101.55.8-17.11,2-48.13.01-64.26-.25-2.01.11-4.07-1.9-5.42l-158.43-48.57-114.35,33.02,14.16-16.03,98.4-29.74,172.84,51.44c5.36,61.22.8,123.83-16.31,182.89h42.1v99.76c-8.46,3.69-26.63,9.98-35.69,10.22-11.86.32-27.39-7.43-39.34-9.31-4.87,12.85,4.31,25.42,5.46,38.44-11.64-1.44-24.04-4.58-35.7-5.47-3.34-.26-15.7-1.32-17.63-.91-2.41.52-29.05,19.7-35.14,23.18-12.91,7.36-26.51,14.11-40.59,19.01-26.9-9.81-51.12-25.52-74.05-42.35l-53.16,6.54c-2.41-2.52,12.03-32.94,2.75-38.38-25.09,11.29-47.89,11.04-72.33-.97v-99.76h40.27ZM153.45,159.55c-9.36-2.42-18.89-13.06-27.46-15.53-7.16-2.07-13.43-.47-20.31-1.66-3.27-.57-20.56-7.79-21.46-6.89-1.19,9.21,21.35,15,21.92,17.49-9.53,17.48-18.1,35.6-20.09,55.73,8.49-11.42,15.11-22.17,27.43-30.21-6.09-2.1-5.61-7.96-5.47-13.71,3.49,1.05,2.23,4.85,7.18,6.52,10.07,3.4,27.86-.93,38.29-3.13l-.04-8.6ZM230.65,135.48l-65.88,76.01c-3.63,1.67-9.9-12.51-14.7-9.34l-45.72,48.62,46.7-29.25c1.8-.53,2.96,12.28,7.1,10.79l31.34-23.6-4.59,32.92h3.62s38.08-54.38,38.08-54.38l-.51-6.01c-1.66,1.67-17.69,13.61-15.54,6.43l20.11-52.19ZM201.36,256.28h116.24c5.17-8.49,19.53-20.27,14.6-31.09-6.25-13.7-48.51-13.57-48.43-19.26,5.27-8.75,49.66-9.89,51.21-16.5,1.81-7.73-27.72-11.2-32.94-13.73,2.64-7.81,29.39-5.74,31.11-7.31-5.06-11.69-2.99-12.97,1.81-23.79-5.2,5.33-18.02,11.96-14.6,20.13l-32.85,7.47.09,5.14c.93,1.45,16.26,6.05,19.19,7.35,1.66.74,5.51.72,2.56,3.81-4.22,4.41-52.85,4.11-60.4,15.64,1.31,12.53,33.02,10.92,30.8,21.65l-2.33,3.05-76.06,27.41ZM97.03,241.62c18.93-6.33,12.44-21.83,17.43-36.55,3.08-9.1,10.14-15.34,13.66-23.85-21.11,12.09-31.86,36.44-31.09,60.4ZM61.32,269.09H27.46c3.12,23.38,2.69,47.99.02,71.39l16.46-3.67-1.83-27.45,5.64,1.1,5.34,24.54,16.48-4.62c.26-1.28-9.23-18.02-9.14-21.98.07-3.44,6-6.16,6.38-12.7.3-5.24-.1-25.09-5.49-26.6ZM93.35,269.1h-16.46c3.11,20.36,2.6,41.83,0,62.22l16.46-1.84c-2.97-19.29-2.97-41.13,0-60.38ZM132.71,269.09c-8.59-1.85-22.71,1.35-32.03,0-.68,1.97,1.83,4.02,1.83,4.58v49.42c0,.54-2.55,2.55-1.82,4.56,10.46-3.12,34.32.99,39.31-11.01,2.17-5.22,1.8-38.23-1.06-42.78-.9-1.44-4.77-4.46-6.22-4.77ZM161.09,310.28v-31.12c0-4.38,16.54-5.01,12.88,6.34l12.75.08c-.28-5.82,2.12-12.24-4.1-15.13s-30.06-3.38-33.39,4.19c-2.06,4.67-1.8,38.8.76,43.09,4.16,6.98,30.5,6.4,35.03.02,2.58-3.63,2.46-24.61.64-24.88l-15.41.04,3.66,20.13-12.82-2.75ZM230.65,269.09h-36.61c-.49,1.34,1.83,2.19,1.83,2.75v45.76c0,.56-2.32,1.4-1.83,2.75h36.61v-10.98s-21.98,1.83-21.98,1.83v-12.83s14.63,1.85,14.63,1.85l1.88-10.06-16.51-.93.83-11.11,2.24-1.44,18.89,3.39v-10.98ZM237.97,322.18h30.2c.53,0,1.31,2.23,2.73,1.83l1.85-12.8-20.13,1.81v-41.19c0-.39,2.74-2.07,1.83-2.73h-18.3c5.32,7.21-.55,50.69,1.83,53.07ZM294.72,269.11h-16.47c2.86,17.93,2.88,36.93,0,54.89l16.47,1.83c-2.79-17.93-3.19-38.9,0-56.72ZM316.68,323.09c-.97-8.31.7-18.05,0-26.54l15.09,32.49,14.2,2.27c.91-.66-1.83-2.33-1.83-2.73v-54.92c0-.57,2.52-2.59,1.82-4.56h-16.47c-.91.66,1.83,2.34,1.83,2.73v26.54l-13.11-28.99-16.18-.29c2.95,18.04,2.98,38.64-.01,56.72l16.47,1.83c.69-2.04-1.73-3.78-1.82-4.56ZM389.91,269.09h-36.61c-.49,1.34,1.83,2.19,1.83,2.75v58.58c0,.45-1.92,1.46-1.85,2.72l36.62,7.34v-14.63c-7.08,1.69-14.47,1.74-21.17-1.75l-.78-16.55c5.19-.26,10.31-.91,13.73,3.62,4.35-3.22,2.48-8.77,2.77-13.56l-16.52-1.04-.02-15.43c.41-2.74,19.05-1.17,21.98,2.61l.02-14.64ZM327.66,342.32c-78.88-10.24-159.25-10.24-237.98,0,5.46,16.83,8.66,24.62,1.85,42.08l49.91-5.13c20.35,15.89,42.76,28.74,66.31,39.23,24.85-9.25,46.72-24.18,68.17-39.31l49.91,5.2c-8.04-16.36-3.91-26.26,1.83-42.07ZM69.56,345.99c-8.53,1.79-17.58,1.83-25.99,4.21-1.89.54-5.55.42-5.12,3.07,11.44,1.29,23,2.84,31.11-7.29ZM377.08,351.48l-31.1-5.49,13.83,7.2,17.27-1.7Z"/>
  <path d="M208.68,42.1l91.53,27.47-34.02,56.61c-1.76,6.18,3.08,7.29,7.37,1.84,4.95-6.29,33.9-52.44,37.08-53.09l46.96,13.21c1.95.89,4.86,6.59,4.86,7.95v48.51l-26.29-23.66-24.87,21.12-19.29-15.32-23.83,17.86c-1.11-4.7-1.39-5.83-6.38-7.31l-1.83,9.14-28.45-38.39-22.83,23.76V42.1Z"/>
  <path class="cls-1" d="M201.36,256.28l76.06-27.41,2.33-3.05c2.22-10.73-29.49-9.12-30.8-21.65,7.55-11.52,56.18-11.22,60.4-15.64,2.95-3.09-.9-3.07-2.56-3.81-2.92-1.3-18.26-5.9-19.19-7.35l-.09-5.14,32.85-7.47c-3.42-8.16,9.4-14.8,14.6-20.13-4.8,10.82-6.87,12.1-1.81,23.79-1.73,1.57-28.48-.5-31.11,7.31,5.22,2.53,34.75,5.99,32.94,13.73-1.55,6.61-45.94,7.75-51.21,16.5-.08,5.69,42.18,5.55,48.43,19.26,4.93,10.81-9.43,22.6-14.6,31.09h-116.24ZM317.93,233.76c6.12-7.06-3.51-12.54-10.4-12.24,5.06,6.06,5.07,10.38,0,16.44,1.64,1.25,8.95-2.52,10.4-4.19Z"/>
  <path class="cls-1" d="M230.65,135.48l-20.11,52.19c-2.15,7.17,13.88-4.76,15.54-6.43l.51,6.01-38.08,54.38h-3.62s4.59-32.92,4.59-32.92l-31.34,23.6c-4.14,1.49-5.3-11.32-7.1-10.79l-46.7,29.25,45.72-48.62c4.8-3.17,11.07,11.01,14.7,9.34l65.88-76.01Z"/>
  <path class="cls-1" d="M316.68,323.09c.09.79,2.51,2.52,1.82,4.56l-16.47-1.83c2.99-18.08,2.96-38.68.01-56.72l16.18.29,13.11,28.99v-26.54c0-.39-2.74-2.07-1.83-2.73h16.47c.7,1.97-1.82,3.99-1.82,4.56v54.92c0,.39,2.74,2.07,1.83,2.73l-14.2-2.27-15.09-32.49c.7,8.5-.97,18.23,0,26.54Z"/>
  <path class="cls-1" d="M61.32,269.09c5.39,1.51,5.79,21.36,5.49,26.6-.37,6.54-6.31,9.26-6.38,12.7-.08,3.96,9.4,20.7,9.14,21.98l-16.48,4.62-5.34-24.54-5.64-1.1,1.83,27.45-16.46,3.67c2.68-23.4,3.1-48.01-.02-71.39h33.87ZM52.83,298.12c2.18-5.04,3.2-10.99,1.28-16.34l-12.02-1.72v18.32s10.73-.26,10.73-.26Z"/>
  <path class="cls-1" d="M153.45,159.55l.04,8.6c-10.44,2.2-28.22,6.54-38.29,3.13-4.95-1.67-3.69-5.47-7.18-6.52-.15,5.75-.63,11.61,5.47,13.71-12.33,8.05-18.94,18.79-27.43,30.21,1.99-20.13,10.56-38.26,20.09-55.73-.57-2.49-23.11-8.28-21.92-17.49.9-.9,18.19,6.32,21.46,6.89,6.88,1.19,13.14-.4,20.31,1.66,8.57,2.47,18.1,13.11,27.46,15.53Z"/>
  <path class="cls-1" d="M132.71,269.09c1.44.31,5.31,3.33,6.22,4.77,2.86,4.56,3.23,37.57,1.06,42.78-4.99,12.01-28.85,7.9-39.31,11.01-.73-2.02,1.82-4.02,1.82-4.56v-49.42c0-.56-2.51-2.6-1.83-4.58,9.32,1.35,23.44-1.85,32.03,0ZM115.32,316.68c20.19,2.26,11.59-23.88,12.02-36.73l-12.02-1.71v38.44Z"/>
  <path class="cls-1" d="M389.91,269.09l-.02,14.64c-2.94-3.78-21.57-5.35-21.98-2.61l.02,15.43,16.52,1.04c-.29,4.79,1.58,10.34-2.77,13.56-3.42-4.53-8.54-3.88-13.73-3.62l.78,16.55c6.71,3.49,14.09,3.44,21.17,1.75v14.63s-36.62-7.34-36.62-7.34c-.07-1.26,1.85-2.27,1.85-2.72v-58.58c0-.56-2.32-1.4-1.83-2.75h36.61Z"/>
  <path class="cls-1" d="M161.09,310.28l12.82,2.75-3.66-20.13,15.41-.04c1.82.27,1.94,21.24-.64,24.88-4.53,6.38-30.87,6.95-35.03-.02-2.56-4.29-2.82-38.42-.76-43.09,3.33-7.57,26.96-7.18,33.39-4.19s3.82,9.32,4.1,15.13l-12.75-.08c3.66-11.35-12.88-10.72-12.88-6.34v31.12Z"/>
  <path class="cls-1" d="M230.65,269.09v10.98s-18.91-3.39-18.91-3.39l-2.24,1.44-.83,11.11,16.51.93-1.88,10.06-14.63-1.85v12.83s21.96-1.83,21.96-1.83v10.98s-36.6,0-36.6,0c-.49-1.34,1.83-2.19,1.83-2.75v-45.76c0-.56-2.32-1.4-1.83-2.75h36.61Z"/>
  <path class="cls-1" d="M237.97,322.18c-2.38-2.37,3.49-45.85-1.83-53.07h18.3c.91.66-1.83,2.34-1.83,2.73v41.19l20.13-1.81-1.85,12.8c-1.42.4-2.2-1.83-2.73-1.83h-30.2Z"/>
  <path class="cls-1" d="M93.35,269.1c-2.97,19.25-2.97,41.09,0,60.38l-16.46,1.84c2.6-20.39,3.1-41.86,0-62.22h16.46Z"/>
  <path class="cls-1" d="M294.72,269.11c-3.2,17.82-2.79,38.79,0,56.72l-16.47-1.83c2.89-17.96,2.87-36.96,0-54.9h16.47Z"/>
  <path class="cls-1" d="M97.03,241.62c-.76-23.96,9.98-48.31,31.09-60.4-3.51,8.51-10.57,14.75-13.66,23.85-4.99,14.72,1.5,30.22-17.43,36.55Z"/>
  <path class="cls-1" d="M69.56,345.99c-8.11,10.13-19.67,8.58-31.11,7.29-.43-2.65,3.23-2.54,5.12-3.07,8.41-2.38,17.46-2.42,25.99-4.21Z"/>
  <polygon class="cls-1" points="377.08 351.48 359.81 353.19 345.98 345.99 377.08 351.48"/>
  <path d="M208.68,377.09c17.8-.22,35.59-.45,53.1,2.75l-53.1,30.2v-32.95Z"/>
  <path d="M317.93,233.76c-1.45,1.67-8.76,5.45-10.4,4.19,5.07-6.06,5.06-10.38,0-16.44,6.89-.3,16.52,5.18,10.4,12.24Z"/>
  <path d="M52.83,298.12l-10.74.26v-18.32s12.02,1.72,12.02,1.72c1.92,5.35.9,11.3-1.28,16.34Z"/>
  <path d="M115.32,316.68v-38.44l12.02,1.71c-.42,12.84,8.17,38.99-12.02,36.73Z"/>
  <path class="cls-1" d="M140.96,366.12c.33-7.01-4.13-13.58,4.58-16.44,4.18.28,5.34,20.12-4.58,16.44Z"/>
  <polygon class="cls-1" points="296.53 366.11 289.23 366.12 289.24 351.47 295.67 353.25 296.53 366.11"/>
  <g>
    <path class="cls-2" d="M126.73,350.03c.19.07.3.13.32.2.02.08,0,.17-.08.27-.08.1-.19.21-.32.32-.13.11-.27.22-.41.33-.14.11-.25.21-.33.31-.15.18-.27.34-.36.5-.1.16-.21.31-.33.45-.12.14-.27.27-.44.39-.17.12-.41.22-.71.31-.1.03-.22.06-.35.08-.14.02-.26.05-.39.09-.22.07-.41.15-.56.26-.15.11-.34.21-.55.3-.27.12-.51.22-.71.31-.2.09-.47.21-.8.35l-.36.11c-.22.07-.43.16-.63.27-.2.12-.51.29-.95.52-.23.11-.54.21-.94.32-.4.11-.83.26-1.3.44-.06.03-.13.08-.21.17-.08.09-.15.14-.18.16-.27.12-.58.24-.94.37-.36.13-.68.27-.98.41s-.54.29-.72.45c-.18.16-.25.33-.19.51.04.14.17.28.39.43.22.15.45.29.7.42.25.13.49.24.72.32.23.08.38.13.45.14.21.03.4.08.57.14.17.06.35.12.54.2.19.07.38.15.59.22.21.08.46.14.76.19.19.04.39.07.62.09.22.02.44.04.64.05.2.02.38.04.53.07.15.03.24.08.25.14.11.08.41.13.9.16.49.03.96.1,1.41.22.05.01.14.03.27.04.13.01.28.02.42.04.15.01.28.03.41.06s.2.06.21.11c.02.07.12.09.28.07.17-.02.32-.02.47.02.12.02.2.06.27.12s.16.1.3.14c.29.08.62.17,1.01.25.39.08.62.25.7.51.05.17.02.36-.09.57-.03.06-.1.1-.2.15-.11.04-.16.1-.16.18-.04.15-.09.29-.14.42-.05.13-.17.29-.35.47-.19.18-.41.36-.66.54s-.5.39-.74.62c-.17.17-.35.34-.54.49-.2.15-.41.32-.66.5-.24.18-.53.38-.85.61-.33.23-.7.51-1.13.85-.14.12-.33.26-.56.43-.23.17-.6.37-1.11.59-.27.13-.64.28-1.12.45-.48.17-1.01.36-1.61.56s-1.24.41-1.92.63c-.68.22-1.36.44-2.04.66-.5.18-1,.35-1.52.53-.52.18-1.05.35-1.59.51-.85.25-1.5.42-1.97.51s-.73.03-.79-.17c-.03-.09,0-.18.06-.28.07-.1.16-.21.29-.31.12-.11.24-.21.37-.32.12-.1.23-.2.31-.29.16-.19.31-.36.44-.51.13-.15.27-.28.42-.4.15-.12.31-.23.48-.31s.39-.17.65-.25c.28-.08.59-.16.92-.24.33-.07.65-.14.98-.2.32-.06.62-.12.88-.18.27-.06.48-.11.64-.16.26-.08.51-.17.76-.28.24-.1.52-.21.85-.3.34-.1.72-.2,1.15-.29.42-.09.8-.19,1.15-.29.5-.15,1.08-.34,1.74-.57s1.27-.47,1.86-.72c.58-.25,1.06-.49,1.45-.72.38-.23.55-.42.5-.57-.02-.08-.13-.17-.31-.26-.18-.1-.4-.2-.66-.3-.26-.1-.55-.2-.86-.3-.31-.1-.61-.19-.9-.27-.14-.03-.31-.05-.51-.05s-.36-.02-.48-.06c-.14-.04-.25-.1-.32-.18-.07-.08-.17-.14-.31-.17-.26-.07-.56-.11-.91-.12-.34-.02-.63-.05-.87-.09-.39-.07-.78-.18-1.15-.31-.37-.14-.79-.25-1.26-.35-.14-.03-.24-.04-.31-.05-.07,0-.23-.06-.47-.15-.26-.06-.56-.09-.9-.1-.34-.01-.64-.05-.9-.1-.09-.02-.14-.06-.15-.12,0-.06-.06-.09-.15-.11-.27-.03-.58-.06-.92-.09-.34-.03-.53-.14-.59-.33-.04-.13-.17-.27-.4-.42-.23-.15-.38-.35-.46-.6-.05-.17,0-.34.15-.5.15-.16.24-.31.26-.45.06-.09.08-.17.06-.24-.02-.07,0-.14.06-.24.04-.03.11-.07.23-.12.12-.05.18-.08.2-.11.06-.1.12-.19.2-.27.08-.07.18-.16.3-.26s.28-.22.48-.37c.2-.14.46-.34.78-.59.06-.04.09-.08.09-.13,0-.05.04-.1.09-.13.12-.09.27-.17.42-.24.16-.07.29-.14.4-.22.5-.32.93-.6,1.31-.83.38-.24.74-.45,1.07-.65.33-.2.67-.39,1.02-.57s.74-.37,1.21-.59l3.9-1.8c.19-.16.47-.3.83-.42.36-.12.73-.28,1.11-.47.37-.22.86-.45,1.47-.7.6-.25,1.28-.51,2.04-.78Z"/>
    <path class="cls-2" d="M146.36,354.47c.04.19.06.35.06.49,0,.14,0,.27,0,.39,0,.12-.03.25-.07.38s-.09.27-.14.43c-.11.34-.19.68-.25,1.02s-.16.69-.28,1.06c-.01.04-.06.1-.14.19-.08.09-.16.19-.25.3-.09.11-.17.22-.24.32-.08.11-.13.2-.16.27-.07.2-.2.38-.39.54s-.39.35-.58.58c-.08.12-.14.24-.15.37s-.08.24-.19.32c-.04.04-.14.1-.3.2-.16.1-.35.21-.55.33l-.6.37c-.2.12-.36.23-.47.31-.07.06-.14.13-.2.21s-.13.14-.2.19c-.1.05-.21.08-.35.11-.13.03-.25.07-.35.12-.04.04-.06.08-.08.15-.02.06-.07.1-.15.12-.04,0-.1.02-.17.03-.07,0-.13.02-.17.03-.08.02-.26.1-.53.25-.27.15-.57.32-.88.5s-.62.36-.89.52c-.28.17-.47.27-.56.32-.14.07-.28.14-.43.19s-.29.12-.43.19c-.18.07-.31.14-.41.21-.09.07-.19.13-.28.19-.1.06-.2.12-.32.17s-.29.1-.52.14c-.06.01-.19.02-.38.02s-.39-.01-.58-.03-.38-.06-.55-.11c-.17-.05-.26-.12-.28-.21,0-.03,0-.06.01-.09s.02-.07.01-.11c0-.03-.02-.05-.04-.06-.29-.18-.6-.33-.94-.48-.34-.14-.53-.35-.59-.63-.02-.1,0-.21.03-.32s.05-.26.01-.44c-.04-.22-.12-.47-.24-.75-.12-.28-.2-.56-.26-.85-.05-.27-.02-.58.11-.95.12-.37.31-.75.55-1.14.25-.39.54-.79.88-1.18.34-.39.71-.74,1.1-1.06.28-.23.58-.45.9-.67s.66-.45,1.01-.68c.35-.23.71-.47,1.06-.72.36-.25.7-.51,1.04-.78.2-.17.48-.36.84-.56.36-.21.72-.42,1.08-.64.1-.05.21-.08.33-.11.12-.02.23-.06.33-.12.19-.1.36-.2.49-.3.13-.1.24-.19.33-.27.09-.08.18-.15.28-.21.1-.06.21-.1.33-.13.1-.02.2-.03.3-.04.09,0,.19-.02.3-.04.12-.02.21-.06.27-.1.06-.04.11-.09.17-.14.05-.05.12-.1.21-.15.09-.05.22-.09.41-.13.4-.05.69-.06.88-.04.19.02.32.08.4.15.08.08.15.17.22.29s.18.24.33.38l.6.61c.11.11.22.21.35.31.13.1.21.19.25.29.02.08-.02.14-.09.19-.08.05-.11.11-.09.18,0,.04.06.09.16.14.1.05.15.12.17.21ZM142.12,357.26c-.03-.14-.08-.29-.17-.45-.08-.16-.17-.33-.24-.51-.09-.22-.16-.46-.22-.72-.06-.26-.13-.49-.22-.71-.08-.22-.18-.39-.28-.52-.1-.13-.23-.18-.4-.15-.23.04-.56.16-1.01.36-.44.2-.86.4-1.25.62-.09.07-.18.16-.27.28-.08.12-.19.24-.32.36-.46.4-.83.77-1.12,1.09-.29.33-.52.64-.7.96-.18.31-.32.63-.42.96-.11.33-.21.7-.3,1.11-.07.31-.15.58-.23.81-.08.23-.1.48-.05.75.15.79.46,1.36.92,1.71.46.36.96.48,1.5.38.33-.06.56-.15.7-.27.14-.12.25-.2.35-.27.1-.05.21-.08.35-.11.13-.03.25-.07.35-.12.4-.25.69-.52.87-.79.18-.28.34-.55.48-.82l.19-.04c.06-.01.09-.03.09-.04s-.01-.04-.03-.07c-.02-.03-.03-.05-.03-.07-.01-.06.01-.14.07-.22.06-.09.13-.17.22-.25.09-.08.18-.16.27-.24s.15-.14.19-.18c.16-.19.26-.35.31-.5s.07-.28.08-.42c0-.14,0-.27-.01-.4-.01-.13,0-.27.03-.43.02-.22.07-.42.14-.6.07-.18.12-.34.13-.48Z"/>
    <path class="cls-2" d="M174.24,356.59c.24.08.37.15.37.23,0,.05-.04.11-.12.17-.09.06-.19.12-.31.17-.12.05-.24.11-.35.16-.11.05-.18.11-.22.15-.17.22-.46.47-.88.76s-.85.59-1.28.9c-.23.17-.5.38-.8.63-.3.25-.62.48-.96.7-.04.02-.12.05-.25.07-.12.03-.2.05-.21.07-.15.2-.34.39-.59.58-.24.19-.62.31-1.12.37-.61.07-1.07.05-1.4-.03-.33-.09-.56-.21-.7-.36-.14-.15-.23-.31-.26-.48-.03-.17-.05-.31-.06-.41-.04-.33-.01-.69.07-1.09s.18-.8.3-1.2c.12-.4.22-.78.31-1.14.09-.36.12-.67.09-.91h-.13c-.17.03-.38.13-.63.32s-.54.42-.86.69-.66.57-1.01.88c-.36.31-.71.6-1.06.87-.2.14-.41.28-.64.43-.23.14-.45.27-.66.39s-.38.21-.52.28c-.14.07-.21.1-.21.09,0,.02,0,.04.02.07.01.03.02.05.02.07,0,.06-.07.14-.24.24-.17.1-.35.19-.56.28-.2.09-.39.17-.56.23-.17.06-.26.1-.26.11,0,.02,0,.04.02.07.01.03.02.05.02.07,0,.04-.06.07-.2.09-.14.02-.22.05-.26.08-.05.08-.1.17-.15.27-.04.1-.21.17-.5.21-.15.02-.3.07-.46.17-.16.1-.32.21-.47.32-.16.11-.31.22-.46.32-.15.1-.28.17-.41.2-.41.1-.73.16-.96.19-.29.03-.57.01-.85-.06-.27-.07-.51-.16-.71-.26-.2-.1-.37-.21-.49-.31-.13-.11-.19-.18-.2-.23-.03-.24-.03-.51-.02-.81.01-.29.04-.59.08-.88.04-.29.11-.57.21-.83.1-.26.23-.47.41-.65.09-.11.13-.26.11-.44,0-.06-.02-.13-.04-.2-.02-.07-.03-.14-.04-.21-.01-.11,0-.22.04-.33.04-.11.09-.24.15-.38s.12-.31.2-.5c.07-.19.14-.42.2-.68.02-.18.04-.35.05-.53.01-.17.04-.35.09-.52.08-.26.17-.55.27-.85.1-.3.14-.61.11-.93,0-.04,0-.09-.02-.15,0-.06-.02-.12-.05-.18-.03-.06-.06-.11-.1-.15s-.09-.06-.15-.05c-.17.02-.33.08-.49.18-.16.1-.32.21-.47.34-.16.13-.31.25-.45.38-.15.12-.29.22-.43.29-.2.1-.46.2-.78.29-.32.09-.59.18-.81.28-.08.04-.14.08-.18.14-.04.05-.08.11-.14.16-.06.05-.14.1-.25.15-.11.05-.27.08-.48.11-.08,0-.16.01-.24,0s-.12-.04-.12-.12c-.02-.17.12-.33.41-.49.29-.15.52-.3.7-.42.08-.05.11-.11.09-.17-.02-.06.02-.11.12-.17s.26-.13.48-.22c.22-.09.43-.19.63-.3.08-.05.11-.11.11-.17s.02-.11.08-.17c.12-.07.33-.15.62-.25.3-.1.54-.2.74-.3.06-.03.14-.09.24-.17.1-.08.2-.16.32-.24.12-.08.24-.16.37-.22.13-.07.27-.11.41-.13.1-.01.22-.06.35-.15.13-.09.26-.2.39-.32.13-.12.27-.24.41-.35s.26-.2.38-.26c.14-.07.33-.13.58-.19.25-.06.52-.1.81-.13.33-.04.63-.04.89-.02.26.02.39.11.41.25,0,.06,0,.15-.02.25-.02.1-.05.21-.08.31-.03.1-.06.21-.08.3s-.03.17-.02.22c0,.08.04.14.1.18.06.04.09.09.1.15,0,.04-.05.12-.16.25s-.23.29-.35.47c-.12.18-.23.38-.33.6-.1.22-.14.42-.12.62.01.14.04.26.07.38.03.12.06.23.07.35.02.22-.03.43-.15.63-.02.02-.06.04-.14.06-.07.02-.1.05-.1.1,0,.04.02.09.05.15.03.07.05.14.06.22.01.1,0,.17-.06.21-.05.04-.11.07-.18.09-.07.02-.13.04-.18.07-.05.02-.07.07-.06.14,0,.08.05.16.14.23.08.07.13.18.15.32.01.13-.02.28-.11.46-.09.18-.18.39-.28.63-.1.24-.19.5-.26.79-.08.29-.09.59-.06.92.03.28.08.51.15.68.07.17.19.25.36.23.31-.03.68-.15,1.09-.36.41-.2.84-.46,1.3-.77s.91-.65,1.37-1.01c.46-.36.88-.73,1.28-1.08.39-.36.74-.69,1.03-.99.29-.3.52-.54.67-.72.43-.55.83-1.09,1.21-1.61.38-.53.81-1.1,1.29-1.73.03-.08.05-.15.04-.23,0-.08-.02-.16-.03-.24l-.03-.31c-.02-.2.03-.36.16-.47s.29-.21.51-.28.45-.14.72-.2c.27-.06.52-.14.77-.24.28-.11.56-.24.82-.38s.51-.27.77-.4.5-.24.75-.35c.25-.11.54-.18.85-.24,0,.05-.02.1-.08.15-.06.05-.13.1-.2.16s-.16.12-.23.2-.12.16-.13.27c-.01.08-.05.2-.1.36-.06.16-.15.33-.28.5-.02.02-.06.03-.12.03-.06,0-.09.03-.09.08,0,.11-.02.3-.03.57-.01.27-.04.53-.07.78-.02.18-.13.37-.32.58-.19.21-.28.42-.28.63,0,.04.02.07.06.08s.05.03.05.06c.01.11-.07.22-.23.35-.17.12-.25.22-.24.29.01.12.06.24.15.37.09.13.14.25.15.38.02.15-.03.31-.14.46-.11.15-.19.32-.23.5-.06.18-.09.36-.07.53.02.17,0,.34-.04.51-.09.35-.2.69-.33,1.02-.13.33-.19.6-.17.81.01.11.05.21.13.29.07.09.15.17.23.23s.18.14.29.22c.15-.02.33-.06.56-.14.22-.07.44-.15.64-.24.2-.09.38-.17.53-.25s.22-.13.22-.16c0-.02,0-.04-.02-.06-.01-.02-.02-.04-.02-.06,0-.05.07-.09.24-.12.17-.03.25-.07.24-.12,0-.02,0-.04-.02-.07-.01-.03-.02-.05-.02-.07,0-.04.05-.09.16-.17.11-.08.23-.15.35-.24.13-.08.25-.16.37-.22.12-.06.2-.11.24-.13.04-.02.07-.06.1-.11s.07-.1.14-.16c.07-.06.17-.11.31-.16.14-.05.34-.09.59-.12.04,0,.08,0,.11,0,.03,0,.07,0,.11,0Z"/>
    <path class="cls-2" d="M195.85,346.98s-.03.07-.03.11c0,.05,0,.08.02.12.01.03.02.07.02.1,0,.1-.04.18-.12.23-.08.05-.19.1-.31.13-.12.03-.26.06-.39.08s-.25.05-.33.09c-.06.03-.15.08-.28.14-.12.06-.25.13-.39.2-.13.07-.27.13-.4.19-.13.06-.24.11-.33.14-.23.06-.53.12-.89.18s-.69.12-.99.19c-.29.08-.53.14-.72.2-.19.06-.36.11-.53.15-.17.04-.36.08-.6.1-.23.03-.54.05-.94.06,0-.02-.02-.04-.07-.07-.04-.03-.09-.04-.13-.04-.02,0-.04,0-.06.02-.19.1-.4.16-.64.17-.24.02-.47.05-.69.1-.22.05-.4.15-.56.3s-.22.41-.21.77c0,.09.02.18.04.27.02.09.04.18.04.27,0,.25-.03.52-.13.82-.09.3-.2.61-.31.94-.11.33-.23.67-.36,1.01-.12.35-.21.7-.26,1.05-.09.51-.18,1.04-.27,1.58-.1.54-.13,1.07-.11,1.59.54-.09.98-.24,1.32-.44.34-.2.68-.39,1.04-.57.19-.1.4-.2.63-.32.24-.11.48-.23.73-.35.02,0,.05-.04.08-.08.03-.04.07-.09.12-.14.05-.05.11-.1.17-.14s.12-.07.19-.07c.04,0,.09,0,.16,0,.06,0,.12,0,.16,0,.06,0,.12-.03.19-.08.06-.05.14-.1.23-.16.09-.06.2-.11.32-.16.12-.05.28-.08.47-.09.06,0,.12,0,.17,0,.05,0,.08.03.08.07,0,.14-.11.26-.35.37-.24.11-.43.21-.57.31-.62.42-1.3.83-2.05,1.25-.75.42-1.44.9-2.07,1.45-.1.07-.18.12-.25.15s-.12.06-.19.08-.15.05-.27.08c-.11.03-.28.08-.48.16-.21.06-.38.14-.53.22-.14.09-.29.17-.45.26-.15.08-.34.15-.54.21s-.47.09-.78.1c-.17,0-.36-.05-.57-.13-.21-.08-.41-.18-.59-.29-.18-.11-.34-.22-.47-.33-.13-.11-.2-.2-.2-.25,0-.06,0-.17.04-.31.03-.14.07-.3.12-.49.06-.18.12-.38.18-.59.07-.21.13-.42.18-.63.04,0,.09-.01.16-.03.06-.02.09-.03.09-.05-.04-.03-.08-.06-.1-.09-.06-.05-.1-.14-.1-.26,0-.15.02-.32.07-.53s.12-.41.18-.62c.07-.21.13-.4.2-.58.07-.18.11-.32.13-.42.02-.15.02-.29.02-.42,0-.14,0-.27.02-.41.02-.14.05-.28.11-.43.06-.15.15-.31.27-.49.06-.18.09-.37.09-.56,0-.19.03-.38.09-.56.04-.09.11-.2.21-.32s.18-.26.24-.41c.04-.1.06-.22.08-.35.02-.13.03-.26.05-.38.02-.12.03-.22.04-.3,0-.08.01-.12.01-.11-.09-.05-.33-.08-.74-.09-.41-.01-.85,0-1.31,0-.67.03-1.23.08-1.67.17-.44.08-.76.22-.96.41-.06.06-.11.12-.14.18-.03.06-.07.13-.12.19-.05.06-.13.11-.25.15-.11.04-.3.07-.55.08-.13,0-.26,0-.39-.01-.14-.01-.21-.06-.21-.14,0-.13.06-.24.21-.33.14-.1.32-.19.54-.28s.45-.18.7-.27.47-.18.65-.29c.1-.05.14-.1.12-.15-.02-.05,0-.11.09-.17.04-.03.12-.05.23-.06.11-.01.19-.03.23-.05.28-.26.57-.47.86-.63.29-.17.63-.32,1.04-.46.4-.14.86-.22,1.36-.24.04,0,.15.01.32.05.17.03.32.05.44.04.23,0,.39-.09.48-.24.09-.15.15-.33.17-.53s.04-.4.04-.6c0-.2.04-.34.13-.42.12-.14.34-.3.66-.48.32-.18.63-.35.94-.51.29-.16.54-.3.74-.42s.41-.24.62-.33c.21-.09.44-.17.7-.24.26-.07.59-.11.99-.13-.12.11-.22.24-.3.39-.08.16-.15.32-.22.49-.07.17-.13.34-.19.51-.06.17-.12.33-.2.47v.04s0,.07.02.09c.01.03.02.06.02.09s-.03.08-.09.13c-.06.05-.13.12-.2.21s-.13.22-.19.38-.08.37-.07.63c0,.13.03.22.07.29.04.07.12.11.24.14.12.03.29.04.51.04s.51-.01.87-.03c1.32-.05,2.4-.14,3.24-.27.84-.13,1.43-.28,1.78-.45.08-.04.24-.12.48-.23.24-.11.48-.17.73-.18.17,0,.3.01.41.05Z"/>
    <path class="cls-2" d="M218.12,356.31c.17.05.25.12.25.2,0,.06-.05.13-.15.2-.1.07-.21.13-.34.19s-.24.11-.35.15-.16.06-.16.07c-.15.06-.26.11-.33.16-.08.05-.2.12-.37.22-.15.1-.29.18-.42.24s-.26.12-.4.18c-.14.06-.28.13-.43.19-.15.07-.3.16-.45.26l-.96.5c-.06.04-.16.09-.27.14-.12.05-.19.1-.21.15,0,.05-.07.08-.19.11-.13.03-.26.06-.41.09s-.29.06-.41.09-.19.07-.19.12c0,.02,0,.04.03.08.02.03.03.06.03.08,0,.03-.04.04-.13.04-.04,0-.09,0-.16-.01-.06,0-.12,0-.16-.01-.08,0-.14.03-.18.09-.03.06-.07.1-.11.11-.13.03-.36.07-.7.11s-.68.07-1.03.11-.66.07-.95.09c-.28.03-.45.04-.49.04-.06,0-.12,0-.16-.02,0,0-.08-.04-.25-.1-.17-.06-.34-.13-.53-.21-.19-.08-.36-.17-.53-.27s-.25-.19-.25-.28c0-.07.02-.15.05-.24.03-.09.07-.21.12-.37.04,0,.08,0,.13-.01.08-.02.13-.04.13-.08,0-.05-.04-.1-.12-.15-.08-.06-.12-.13-.12-.21,0-.14.08-.25.23-.35s.25-.19.29-.29c.07-.3.1-.62.1-.95s.05-.67.17-.99c.04-.15.13-.31.26-.46.13-.16.21-.3.23-.44,0-.05,0-.1-.01-.15,0-.05-.01-.11-.01-.15,0-.12.05-.2.13-.24s.13-.09.13-.17c0-.09-.03-.18-.1-.28-.07-.09-.11-.18-.1-.28,0-.23.06-.44.17-.65.11-.21.23-.42.36-.63.13-.21.25-.43.36-.65.11-.22.17-.45.17-.7,0-.07,0-.15,0-.23s-.02-.16-.06-.25c-.57,0-1.06.09-1.47.26-.41.17-.8.34-1.16.49-.28.12-.55.24-.81.36-.27.12-.55.25-.84.41-.21.11-.41.26-.58.44-.17.18-.38.37-.61.57-.17.07-.31.12-.41.17s-.21.09-.3.15c-.1.06-.18.11-.24.15-.17.14-.32.32-.45.54-.13.21-.39.47-.78.77-.09.07-.16.12-.21.15-.05.03-.1.08-.15.16s-.09.2-.15.36c-.06.16-.13.41-.22.73-.04.11-.12.2-.23.29-.11.08-.18.19-.23.32-.07.18-.1.38-.11.59,0,.21-.06.42-.17.62-.04.04-.12.08-.24.12-.12.03-.2.06-.24.09-.15.1-.23.2-.24.31-.01.11-.09.2-.24.28-.04.03-.13.04-.25.05s-.2.03-.22.04c-.17.13-.3.25-.39.37-.09.11-.17.21-.24.29s-.17.14-.29.18c-.12.04-.3.06-.55.05-.19,0-.4-.02-.64-.06-.24-.03-.47-.08-.69-.13s-.4-.11-.55-.17c-.15-.06-.22-.13-.22-.19,0-.08.09-.17.26-.28.17-.11.26-.29.27-.54,0-.16-.02-.3-.07-.4-.05-.11-.07-.22-.07-.34,0-.09.04-.18.12-.26.08-.08.15-.16.23-.24.08-.08.15-.15.23-.23.08-.08.11-.15.12-.22,0-.07,0-.14-.03-.21-.02-.06-.03-.13-.03-.21,0-.15.07-.29.2-.42.13-.13.24-.28.33-.43.07-.12.12-.25.15-.39s.08-.28.12-.41c.25-.61.53-1.23.85-1.86.32-.62.61-1.28.88-1.98,0-.02.04-.05.11-.09.07-.04.11-.09.11-.15,0-.04,0-.1-.01-.16,0-.06-.01-.13-.01-.21,0-.15.09-.3.26-.42.17-.13.26-.28.26-.45,0-.13-.03-.24-.09-.35-.06-.11-.09-.22-.09-.34,0-.09.04-.17.12-.23.08-.06.16-.11.24-.16.08-.04.17-.08.24-.12.07-.04.11-.08.11-.13,0-.07-.04-.13-.14-.17-.09-.04-.14-.09-.14-.14.08,0,.15-.02.19-.08l.06-.08v-.12c0-.09.06-.17.18-.25.12-.07.22-.17.31-.29.11-.14.16-.28.17-.41,0-.13.04-.29.11-.5.04-.12.14-.24.28-.35.14-.12.21-.28.22-.49,0-.1-.01-.19-.04-.28s-.04-.18-.04-.27c0-.08.03-.15.08-.2.05-.05.12-.1.19-.14s.14-.08.19-.11.08-.08.08-.13c0-.07-.03-.14-.11-.21-.07-.07-.11-.13-.1-.21,0-.1.05-.22.13-.37s.19-.29.31-.43c.12-.14.22-.27.31-.38.09-.11.13-.19.13-.22,0-.08-.08-.14-.25-.18-.17-.04-.3-.05-.41-.06-.23,0-.44.02-.63.09-.19.06-.38.14-.56.23-.18.09-.35.18-.5.28s-.29.17-.42.24c-.11.04-.23.07-.38.09-.15.02-.25.05-.32.09-.09.04-.18.1-.27.16-.1.07-.2.13-.32.2s-.23.12-.35.16c-.12.04-.24.06-.36.06-.13,0-.29-.05-.48-.15-.2-.1-.29-.19-.29-.29,0-.05.04-.08.11-.11.07-.03.16-.05.25-.08.1-.03.2-.06.3-.11.11-.05.18-.11.23-.19.07-.12.22-.22.45-.32.23-.09.52-.2.87-.31.35-.11.76-.24,1.22-.4.47-.16.96-.36,1.5-.6.17-.08.37-.14.6-.19s.43-.11.6-.19c.08-.03.13-.08.13-.15s.03-.12.1-.16c.06-.03.19-.07.38-.12.19-.05.4-.11.63-.16.23-.05.45-.1.67-.13.21-.04.36-.05.44-.05.71.02,1.16.08,1.33.2.17.12.26.26.26.44,0,.16-.05.33-.15.52s-.21.4-.33.61c-.12.21-.23.42-.33.64-.1.22-.15.42-.16.61,0,.09,0,.17.03.24.02.07.03.14.03.21,0,.17-.11.32-.33.44-.21.12-.36.25-.45.39-.11.19-.19.37-.23.54-.05.17-.09.35-.12.52-.04.18-.08.36-.12.55-.05.19-.13.39-.27.61-.07.12-.17.24-.32.38-.15.14-.23.3-.23.49,0,.06.01.13.04.19.03.06.04.14.04.22,0,.14-.03.3-.09.49-.06.19-.13.39-.2.59-.08.2-.16.41-.25.61-.09.2-.18.39-.27.57-.02.03-.06.09-.13.19-.07.1-.14.22-.21.36-.08.13-.14.28-.2.42s-.09.28-.09.4c0,.13.03.23.1.3.07.07.18.11.33.12.15,0,.3-.03.47-.11.17-.08.34-.17.51-.26.17-.1.34-.18.5-.26.16-.08.3-.12.43-.11.04,0,.09,0,.16.01s.12,0,.16.01c.06,0,.09-.02.1-.05,0-.02,0-.04-.03-.07-.02-.03-.03-.05-.03-.07,0-.02.08-.05.22-.1.15-.05.25-.09.32-.12.15-.11.31-.23.48-.37.17-.14.4-.21.7-.2.04,0,.24-.07.6-.22.36-.15.8-.32,1.32-.49.52-.18,1.08-.34,1.68-.48s1.18-.21,1.72-.2c.73.02,1.27.08,1.62.2.34.11.51.31.51.58,0,.21-.04.41-.11.6-.07.19-.14.35-.22.49-.08.14-.15.25-.23.34-.08.09-.11.14-.11.16-.05.42-.2.86-.44,1.33-.24.47-.42.93-.54,1.39-.09.33-.18.65-.26.96-.08.32-.18.64-.29.98-.11.29-.26.59-.45.9s-.28.61-.29.89c0,.16.01.31.05.46.04.15.06.3.05.46,0,.16-.05.3-.14.42.08.03.19.05.31.05.15,0,.28-.02.41-.07.13-.05.25-.11.37-.17s.24-.13.37-.18c.13-.06.28-.09.44-.09.32-.12.57-.22.76-.29.19-.08.38-.15.56-.23.18-.07.29-.12.33-.15.08-.03.12-.08.11-.14s.04-.11.15-.15c.04-.03.12-.04.22-.05.11,0,.18-.02.22-.04.06-.04.11-.09.13-.15s.07-.11.13-.15c.04-.03.12-.04.24-.05.12,0,.19-.02.24-.05.02,0,.06-.05.11-.12.05-.07.13-.14.23-.22.1-.07.21-.14.35-.2.14-.06.31-.09.52-.08.15,0,.3.03.47.07Z"/>
    <path class="cls-2" d="M231.19,357.86c-.05.11-.11.23-.17.34-.06.11-.18.22-.36.33-.11.07-.27.13-.49.17-.21.04-.38.09-.49.16-.13.06-.25.14-.37.22-.11.09-.24.16-.37.22-.22.1-.46.19-.73.27-.27.08-.52.19-.74.33-.27.16-.56.31-.87.43s-.76.29-1.32.49c-.17.07-.32.16-.43.27-.12.11-.23.17-.33.19-.11.03-.26.04-.46.02s-.35-.01-.46,0c-.19.04-.35.07-.47.09-.12.02-.25.04-.38.05-.14.01-.26.01-.36,0-.44-.04-.77-.11-.99-.23-.22-.12-.37-.28-.45-.48-.08-.2-.11-.44-.1-.72.01-.28.03-.6.06-.97.01-.17.04-.32.08-.44.04-.12.09-.23.15-.33.06-.1.12-.2.18-.29.06-.09.13-.2.2-.33.15-.28.25-.57.31-.87.06-.3.16-.61.31-.93.05-.12.14-.25.27-.38.13-.13.22-.26.27-.4.19-.52.32-1.06.37-1.63.06-.56.18-1.12.38-1.68.09-.29.21-.59.37-.89.16-.3.32-.6.47-.89.2-.38.39-.78.56-1.22.17-.44.35-.88.52-1.33.17-.45.34-.91.51-1.36.16-.46.33-.9.49-1.32.05-.15.16-.3.31-.45s.23-.3.24-.45c.02-.19-.13-.37-.43-.53-.34,0-.57.05-.69.16-.12.1-.3.19-.51.27-.3.1-.58.19-.84.26-.26.07-.54.17-.85.31-.09.04-.18.09-.27.16-.09.07-.2.13-.32.19-.12.06-.27.1-.44.13-.17.03-.38.04-.63.02-.21-.02-.33-.05-.37-.11-.04-.05-.05-.11-.05-.16,0-.08.07-.16.19-.22.12-.07.26-.13.43-.2.16-.06.34-.12.54-.18s.36-.12.49-.18c.35-.14.68-.3,1-.46.32-.16.64-.29.97-.39.24-.08.54-.15.9-.21.36-.06.71-.14,1.03-.24.3-.09.55-.22.74-.38.19-.16.43-.27.71-.32.09-.02.2-.03.33-.02.14,0,.27,0,.41,0,.14,0,.27-.01.4-.04.13-.02.23-.07.3-.13.31.03.58.08.81.17s.41.18.56.28c.15.1.26.19.34.27.08.08.12.12.12.13,0,.1-.08.21-.23.32-.15.11-.25.24-.3.38-.05.14-.1.29-.13.45-.03.16-.08.33-.12.53-.05.2-.12.42-.23.66-.1.24-.24.52-.42.83-.1.17-.24.32-.43.46-.19.14-.31.27-.37.39-.16.38-.25.79-.29,1.24-.04.45-.17.87-.39,1.26-.07.13-.18.25-.31.35-.14.1-.21.22-.22.35,0,.04,0,.08,0,.14,0,.06,0,.11,0,.16,0,.06-.05.1-.12.12s-.11.03-.11.05c0,.03.03.05.09.08.06.03.09.08.08.15-.02.21-.14.41-.37.59-.23.19-.38.37-.46.54-.18.44-.29.9-.32,1.37-.03.47-.14.92-.35,1.34-.05.1-.14.19-.28.28-.13.09-.22.18-.25.28-.07.28-.13.58-.19.9s-.12.63-.19.92c-.08.19-.18.39-.3.62-.12.23-.24.46-.36.7-.12.24-.22.48-.31.72-.09.24-.15.46-.17.67-.01.15,0,.26.04.33s.09.13.16.17c.07.04.14.06.21.07.07.01.14.02.2.02.15.01.28,0,.41-.03.13-.04.25-.08.37-.13s.23-.11.33-.17c.1-.06.2-.11.31-.15.73-.21,1.29-.42,1.67-.62.38-.2.68-.38.93-.53.25-.15.48-.27.69-.35.22-.08.55-.11.99-.07h.13Z"/>
    <path class="cls-2" d="M253.75,361.06c.14.08.2.17.19.25-.02.14-.13.24-.33.32-.2.08-.45.14-.74.2-.29.05-.61.11-.95.16-.34.05-.65.13-.94.22-.38.13-.82.27-1.32.44-.5.16-.9.34-1.21.54-.05.04-.19.11-.43.2-.24.09-.52.19-.84.29s-.67.18-1.05.23c-.38.06-.74.06-1.07.01-.23-.03-.45-.08-.66-.14-.21-.06-.41-.13-.59-.21-.18-.08-.32-.15-.43-.23-.11-.08-.16-.14-.15-.19.01-.08.1-.15.27-.21.17-.06.26-.17.29-.34,0-.04,0-.08-.03-.1-.03-.02-.06-.05-.08-.08s-.05-.07-.06-.12c-.01-.05-.01-.12,0-.22.01-.1.07-.2.16-.3.09-.1.19-.21.3-.32.11-.11.21-.22.3-.33.09-.11.14-.23.16-.34,0-.03,0-.06,0-.09s0-.06,0-.09c0-.05.05-.13.13-.23.08-.1.17-.21.27-.32.1-.11.19-.24.28-.38s.14-.28.16-.41c.02-.17,0-.32-.06-.45-.23,0-.44.03-.62.07-.18.04-.34.1-.49.16-.15.07-.3.14-.44.21-.15.07-.3.14-.46.2-.09.03-.24.07-.46.11-.22.04-.44.09-.67.14-.23.05-.43.1-.61.15-.18.05-.27.1-.28.15,0,.02,0,.04.02.07s.02.05.02.07c0,.03-.06.06-.17.1-.11.04-.23.08-.35.12-.12.04-.24.08-.35.12-.11.03-.17.06-.17.08-.04.1-.23.16-.57.2-.34.04-.65.1-.92.19-.2.06-.37.13-.51.22-.14.08-.27.15-.38.22-.12.07-.23.12-.34.15-.11.03-.24.04-.38.02-.04,0-.11-.02-.2-.04-.09-.02-.17-.04-.23-.05-.15-.02-.24,0-.28.08s-.09.13-.14.17c-.18.09-.39.15-.62.18-.23.03-.51.07-.86.13-.15.02-.26.06-.32.11-.06.05-.14.09-.22.13-.09.03-.23.05-.41.06-.18,0-.46-.02-.83-.07-.21-.03-.4-.07-.59-.11-.18-.05-.27-.09-.27-.12,0-.02.02-.04.04-.06.02-.02.04-.04.04-.06,0,0-.04-.03-.12-.07s-.17-.09-.28-.16c-.11-.07-.2-.15-.27-.25-.07-.1-.1-.21-.08-.34.02-.14.08-.29.17-.44.1-.15.2-.29.32-.43.12-.14.22-.27.33-.4.1-.13.18-.25.24-.37.13-.29.21-.58.26-.89.04-.31.2-.56.46-.77.12-.08.25-.18.4-.31.15-.14.29-.3.42-.49.03-.05.07-.12.13-.22.06-.1.12-.21.21-.32.08-.12.17-.24.26-.36.09-.12.2-.22.31-.31.05-.02.13-.04.25-.07.12-.02.2-.05.25-.07.05-.05.08-.11.1-.17.02-.07.08-.13.17-.19.05-.03.14-.06.27-.08.13-.02.21-.04.23-.07.12-.07.2-.15.26-.27.06-.11.16-.2.29-.26.09-.04.24-.07.46-.08.21,0,.39-.04.52-.1.11-.05.2-.1.26-.17s.14-.12.23-.16c.24-.07.45-.14.62-.21.17-.06.32-.12.47-.17.15-.05.29-.1.42-.15s.3-.09.5-.12c.13-.02.29-.06.48-.14s.36-.12.51-.13c.17,0,.32,0,.46,0,.14,0,.3-.02.5-.05.04-.01.09-.04.14-.1.05-.05.1-.08.14-.08.15,0,.29,0,.43,0,.14,0,.31-.02.5-.07.24-.06.43-.12.57-.19.14-.07.29-.13.47-.17.17-.03.37-.04.58-.03.21.01.4,0,.58-.01.32-.03.65-.08.99-.15.34-.08.7-.15,1.07-.22s.75-.12,1.15-.15c.4-.03.8-.01,1.22.05.27.04.55.07.83.09.28.02.55.04.8.08.23.03.43.08.62.14.18.06.26.15.25.27-.05.34-.2.71-.45,1.11-.25.4-.52.82-.81,1.28-.29.46-.56.94-.82,1.45s-.42,1.06-.51,1.64c0,.02,0,.05.04.09.03.04.03.1.02.17,0,.05-.04.12-.11.18-.06.07-.13.14-.21.21s-.14.13-.2.2-.1.12-.1.18c-.01.09-.02.18-.02.27,0,.09,0,.17-.02.25-.02.15-.09.32-.2.5-.11.18-.24.36-.38.54-.14.19-.27.37-.38.56-.11.19-.18.36-.21.54-.01.09-.01.18,0,.25,0,.08.04.16.09.24.28-.02.51-.05.7-.11.19-.06.37-.12.54-.21s.35-.17.53-.27c.18-.1.42-.19.71-.29.11-.04.27-.09.47-.15.2-.06.41-.12.63-.17s.45-.09.69-.12c.24-.03.46-.03.67,0,.14.02.3.07.46.15ZM247.53,353.05c-.06,0-.12-.02-.19-.03s-.11-.02-.15-.03c-.31-.04-.55-.04-.72.01-.17.05-.3.07-.41.06-.04,0-.09-.02-.16-.03s-.12-.02-.19-.03c-.1-.02-.16,0-.17.05,0,.05-.07.08-.17.09-.09.03-.21.04-.35.01-.15-.03-.26-.03-.35,0-.11.03-.22.08-.33.17s-.26.16-.46.23c-.18.06-.39.1-.64.13s-.44.07-.57.11c-.05.03-.09.08-.13.14-.04.06-.08.11-.13.14-.18.1-.41.22-.67.37-.27.14-.55.29-.84.44-.3.15-.59.29-.88.43-.29.14-.52.26-.71.37-.19.1-.32.23-.41.4-.09.16-.16.33-.22.51-.06.18-.11.35-.15.52-.04.16-.11.29-.18.39-.48.54-.94,1.08-1.37,1.63-.43.55-.69,1.1-.77,1.66.44.04.79.01,1.05-.08s.47-.2.64-.33c.17-.13.32-.26.47-.39s.34-.21.58-.25c.17-.02.35-.06.54-.12s.35-.11.49-.16c.07-.03.11-.07.11-.13,0-.06.06-.1.15-.14.13-.04.29-.09.48-.14s.38-.09.58-.14.38-.09.54-.13.29-.08.38-.12.15-.1.17-.19c.02-.09.06-.16.11-.2.23-.14.48-.26.75-.37s.53-.21.78-.33c.41-.2.76-.4,1.06-.61.29-.21.55-.42.78-.65.22-.22.43-.46.61-.7.18-.25.37-.51.56-.79.11-.17.24-.35.38-.54.14-.19.23-.39.26-.61.03-.23-.02-.44-.16-.63Z"/>
    <path class="cls-2" d="M279.13,367.83c-.04.14-.16.24-.37.31-.21.07-.47.12-.78.15s-.65.06-1.03.08c-.37.02-.74.05-1.1.11-.11.01-.21.04-.28.09-.08.05-.17.08-.28.08-.11.02-.23,0-.35-.03s-.24-.05-.35-.03c-.16.03-.32.08-.48.16-.16.08-.36.15-.59.21-.07.03-.25.08-.54.15s-.62.13-.99.19c-.37.06-.75.1-1.14.13-.39.03-.72,0-1.01-.07-.16-.04-.28-.09-.35-.14-.07-.06-.1-.11-.09-.15.01-.05.06-.11.14-.16.08-.06.13-.14.16-.26.05-.19.02-.38-.09-.54-.11-.17-.16-.29-.14-.36.07-.18.23-.35.5-.52s.43-.37.49-.6c.03-.12.02-.25-.04-.38-.05-.13-.07-.26-.04-.38.03-.12.13-.24.31-.34s.3-.21.37-.32c.08-.13.14-.27.2-.4.06-.14.1-.28.14-.42l.09-.37c.05-.19.12-.36.22-.51s.2-.28.31-.4c.11-.12.22-.24.35-.36.13-.12.24-.25.34-.39.13-.19.24-.39.31-.6s.14-.42.2-.62c.06-.21.13-.41.21-.6.08-.19.19-.37.34-.53-.06-.02-.15-.05-.27-.08-.27-.07-.5-.09-.7-.07-.2.02-.38.06-.53.11s-.29.11-.4.18c-.11.07-.23.12-.34.15-.09.02-.21.03-.36,0-.15-.02-.27-.01-.36,0-.12.03-.21.07-.29.14s-.17.11-.26.15c-.05.03-.14.02-.27,0-.13-.03-.21-.02-.22.02,0,.02,0,.04,0,.07s0,.05,0,.07c0,.04-.08.06-.21.08-.13.02-.28.04-.45.05s-.32.03-.45.06c-.14.02-.21.05-.22.09,0,.02,0,.04,0,.07,0,.03,0,.05,0,.07,0,.02-.09.05-.25.11-.17.05-.36.11-.59.16-.23.05-.46.11-.69.17-.23.06-.41.09-.55.12-.41.07-.71.15-.91.25s-.35.21-.45.32-.2.22-.28.33c-.08.11-.2.21-.35.29-.05,0-.13,0-.26-.01-.13-.02-.21-.02-.26-.01-.13.07-.24.16-.35.25-.11.09-.27.18-.49.27-.05.02-.14.03-.27.05-.13.01-.2.03-.21.06-.13.07-.24.17-.33.28s-.18.24-.25.37c-.08.13-.14.26-.2.39-.05.13-.09.25-.12.34-.02.1,0,.19.1.26.09.08.12.17.09.28-.01.06-.07.1-.17.11-.1.01-.22.02-.36.02-.14,0-.3,0-.48-.01-.18,0-.35,0-.51.01-.51.06-.95.12-1.31.17-.36.06-.69.11-.98.16-.29.05-.56.11-.79.16-.23.05-.47.1-.72.14-.14-.04-.2-.09-.19-.15.02-.1.16-.17.41-.21.25-.04.38-.1.4-.18.01-.06,0-.12-.07-.18s-.08-.13-.06-.21c0-.03.04-.08.09-.15.05-.08.11-.17.18-.27.07-.1.14-.2.22-.3.08-.1.15-.19.21-.27.12-.13.26-.25.43-.38.17-.12.34-.25.52-.38.17-.13.33-.27.46-.41.13-.15.22-.31.27-.48.02-.08.03-.15.02-.21s0-.12.01-.17c.02-.08.07-.19.14-.32.08-.14.16-.29.26-.45.09-.16.19-.33.29-.49.09-.16.18-.31.26-.44.14-.29.25-.6.33-.92.08-.32.2-.62.36-.91.15-.26.34-.52.56-.76.22-.24.37-.51.44-.79.04-.18.04-.35,0-.51-.25-.04-.51-.04-.78.02-.27.05-.53.12-.78.2s-.46.15-.65.22-.33.09-.41.07c-.04-.01-.09-.03-.15-.04-.06-.02-.11-.03-.15-.04-.1-.03-.2,0-.28.08-.08.08-.19.17-.32.25-.13.08-.29.16-.49.21-.2.05-.45.04-.75-.03-.08-.02-.23-.07-.45-.15s-.31-.17-.29-.27c.01-.06.08-.11.18-.14.1-.03.23-.05.37-.06.14-.01.29-.02.43-.03s.26-.02.35-.05c.07-.03.12-.07.14-.13s.07-.1.15-.13c.55-.14,1.21-.26,1.95-.34.75-.09,1.45-.2,2.11-.33.09-.01.14-.05.14-.12,0-.06.06-.1.17-.11.09-.02.21,0,.35.04s.26.05.35.04c.07-.01.14-.05.2-.1.07-.06.17-.11.3-.16.13-.05.29-.08.48-.09.19,0,.43.02.74.1.16.04.34.1.53.17.19.07.36.15.53.23.16.08.29.16.39.24.1.08.14.14.13.19-.02.09-.1.19-.22.31-.13.12-.21.26-.25.43-.03.11-.01.22.05.33.06.11.08.19.07.24-.07.1-.19.19-.36.27s-.28.2-.32.38c-.02.08-.04.17-.05.27-.01.1-.03.2-.06.3-.04.16-.14.33-.29.5-.15.17-.31.34-.46.5-.16.16-.31.3-.45.43-.14.13-.22.23-.24.31-.02.07.04.12.19.16.2.05.48.05.84.01.36-.04.66-.09.91-.15.09-.01.15-.05.17-.11.03-.06.07-.1.14-.12.05-.02.15-.03.32-.04s.33-.02.51-.03c.18-.01.33-.03.47-.05.13-.02.21-.04.21-.07,0-.02,0-.04,0-.07,0-.03,0-.05,0-.07.01-.04.1-.09.26-.13.16-.04.35-.09.55-.14.21-.05.41-.09.6-.14.2-.05.34-.08.44-.12.09-.03.15-.09.15-.17,0-.08.06-.13.16-.17.28-.08.65-.16,1.11-.23.46-.07.85-.12,1.16-.15.18-.01.35,0,.52.02.17.02.33.03.48,0,.34-.05.66-.11.96-.2.3-.08.6-.16.9-.22.3-.06.59-.1.89-.12.3-.02.62.01.97.1.1.03.25.08.44.18.19.1.38.21.57.34s.34.26.47.4.18.27.15.38c-.02.07-.07.15-.16.25-.09.09-.16.21-.22.35-.14.3-.28.58-.42.84-.14.26-.3.53-.48.82-.14.22-.24.43-.31.65-.06.21-.14.38-.23.48-.15.15-.35.28-.6.4-.26.11-.41.29-.47.52-.01.05-.02.11-.01.18,0,.07.02.14.04.22.01.03.04.06.09.09.05.03.09.06.14.09.04.03.08.08.11.13.03.05.03.12.01.21-.06.23-.23.43-.51.6-.28.17-.45.38-.52.64-.02.1-.01.21.03.32.05.12.06.23.03.33-.04.18-.17.33-.39.46-.22.13-.35.3-.4.5-.01.04-.01.09,0,.13.01.04.07.07.17.1.45.11.84.13,1.17.06.33-.07.65-.15.96-.25.31-.1.63-.19.96-.25.33-.07.71-.05,1.14.06.18.05.35.11.51.18Z"/>
    <path class="cls-2" d="M317.72,361.26h0c-.45.16-.82.29-1.09.39-.28.1-.52.17-.75.21-.22.04-.43.08-.62.1-.19.02-.43.05-.71.08-.12-.03-.36-.04-.7-.04-.34,0-.7,0-1.09.02-.39.01-.75.02-1.09.02-.34,0-.57-.01-.7-.04-.09.05-.24.08-.46.08-.22,0-.46-.01-.75-.05-.28-.03-.57-.07-.87-.1s-.58-.07-.84-.09c-.44-.04-.8-.07-1.1-.09-.3-.02-.58-.05-.87-.09-.28-.03-.58-.08-.89-.14-.32-.06-.71-.15-1.18-.27-.86-.21-1.82-.49-2.86-.81s-2.04-.67-2.97-1.05c-.61-.24-1.21-.5-1.8-.76-.59-.27-1.03-.5-1.32-.69-.14,0-.21.02-.22.03-.01.03.02.08.11.14.09.06.16.12.2.19.06.08.1.17.13.27.03.1.08.19.16.28.15.19.34.38.57.56s.4.37.52.53c.08.09.12.19.13.31,0,.12.05.23.12.33.07.12.15.23.26.33.11.11.19.21.26.32.26.43.47.83.65,1.18.18.35.4.76.67,1.21.05.1.13.21.25.32.11.11.2.22.25.32.03.09.04.18.01.27-.02.09-.01.19.04.29.12.38.26.78.42,1.2.16.42.29.82.39,1.2.03.2.04.4.01.61-.03.21-.02.41.01.61.05.37.12.71.18,1,.07.29.04.6-.09.92-.06.14-.12.28-.2.42-.08.14-.15.27-.22.4-.09.11-.23.2-.43.27-.2.07-.31.18-.35.33-.03.07-.04.14-.05.21,0,.07-.02.14-.04.2-.07.18-.2.33-.39.47s-.4.27-.63.4c-.23.13-.47.25-.72.37-.25.12-.48.25-.69.38-.12.09-.3.17-.52.25s-.45.15-.68.22c-.23.07-.43.13-.6.19s-.27.12-.29.17c-.02.04-.07.06-.17.04-.1-.01-.21-.04-.34-.07-.13-.03-.27-.06-.4-.09s-.24-.04-.31-.03c-.24.04-.44.13-.6.27-.16.14-.36.25-.62.33-.02,0-.1,0-.24.01-.14,0-.29.02-.46.04-.17.02-.32.04-.45.06-.13.03-.21.06-.23.1s-.08.05-.18.04c-.11-.02-.24-.04-.39-.08-.16-.03-.33-.07-.53-.11s-.39-.06-.57-.06c-.09,0-.17,0-.25.04-.08.03-.17.06-.28.07-.11.02-.23.02-.36.02-.13,0-.29-.04-.46-.11-.1-.04-.21-.09-.33-.15-.12-.06-.23-.11-.33-.15-.16-.06-.3-.08-.42-.05s-.26.01-.42-.05c-.18-.07-.29-.13-.35-.18-.06-.05-.11-.1-.15-.15-.04-.05-.07-.1-.09-.15-.03-.05-.09-.11-.2-.18-.2-.13-.44-.25-.74-.37-.29-.12-.48-.2-.55-.25-.1-.09-.2-.25-.3-.47-.1-.23-.25-.46-.45-.71-.13-.14-.24-.26-.35-.36-.11-.1-.21-.2-.31-.29s-.18-.19-.24-.29c-.06-.1-.1-.21-.12-.35-.01-.08-.07-.16-.16-.23-.1-.07-.15-.14-.16-.23-.07-.21-.11-.39-.1-.52,0-.13,0-.31-.03-.53.01-.03,0-.1-.01-.19-.02-.09-.04-.19-.06-.29-.02-.1-.03-.2-.04-.29,0-.1,0-.17.02-.22.09-.24.22-.46.38-.67.16-.21.28-.42.36-.62.04-.11.1-.21.16-.31s.16-.18.31-.26c.05-.01.15-.03.29-.05.14-.02.24-.04.29-.05.22-.16.44-.3.67-.42.23-.12.49-.24.78-.35.29-.11.64-.24,1.03-.37s.86-.3,1.41-.49c.05-.02.11-.05.16-.11.05-.05.12-.08.18-.08.02,0,.08,0,.18.03.09.02.2.04.32.06.12.02.22.04.32.05.1.01.15,0,.16-.02,0-.02,0-.04.01-.07,0-.03,0-.05.01-.07.42-.03.77-.06,1.05-.08s.56-.04.85-.05c.29-.01.52,0,.69.02.17.03.33.08.49.14.15.07.31.11.46.13.2.01.39-.01.57-.07.18-.06.34-.08.47-.08.2,0,.45.01.73.04s.55.04.81.06c.25.01.48.02.67.02.19,0,.29-.02.31-.06.04-.11,0-.28-.11-.5-.12-.22-.26-.45-.42-.68-.17-.23-.32-.44-.45-.62s-.19-.3-.17-.34c0-.07-.04-.16-.13-.27-.09-.11-.19-.23-.3-.36-.11-.13-.2-.24-.29-.34-.08-.1-.12-.18-.1-.23.02-.05-.01-.13-.1-.25-.09-.12-.19-.24-.29-.37-.11-.13-.21-.25-.3-.37-.09-.11-.13-.19-.11-.23.07-.17-.07-.45-.42-.85s-.75-.86-1.19-1.39c-.02-.02-.02-.03-.01-.05s.02-.04.04-.06c.02-.02.03-.04.04-.06.02-.04-.07-.15-.26-.34-.19-.18-.4-.38-.63-.6-.23-.22-.44-.42-.62-.62s-.26-.32-.24-.38c.01-.08-.11-.24-.37-.47-.26-.23-.54-.48-.84-.74-.3-.26-.58-.51-.82-.75-.24-.24-.35-.4-.31-.5.12-.14.27-.19.45-.15.18.04.45.11.82.21.12.04.29.08.5.11.21.03.43.07.67.11.23.04.47.09.72.15.25.06.47.13.67.2.33.13.69.3,1.07.52.38.21.71.42.99.62.05.04.12.11.19.2s.14.16.2.19c.26.15.56.29.92.42.36.13.69.28,1.01.45.13.07.23.16.31.25.07.1.19.18.35.24.04.02.08.03.13.05.05.01.09.03.13.05.08.03.26.12.54.25.28.14.62.3,1.01.48.39.18.8.37,1.23.57.43.2.82.36,1.17.5.49.19,1.07.4,1.75.62.68.22,1.37.43,2.06.62.69.19,1.35.35,1.96.48.62.13,1.1.19,1.46.2.18,0,.34-.01.49-.04.15-.03.32-.04.52-.04.32,0,.65.03,1,.08s.72.09,1.1.09c.58,0,1.26,0,2.02,0,.76,0,1.43-.04,2.02-.1.14-.01.33-.04.57-.07.24-.04.49-.09.74-.16s.5-.15.74-.25.44-.2.6-.31c.11-.15.25-.25.44-.29.19-.04.36-.03.51.03.31.12.41.33.29.63-.17.2-.31.36-.41.48-.1.12-.2.23-.3.33-.1.1-.15.14-.17.14ZM296.63,369.32c.03-.08.04-.14.02-.19-.01-.05-.04-.1-.07-.16-.03-.06-.06-.13-.09-.2s-.04-.18-.04-.29c-.01-.2.03-.38.12-.55.09-.17.12-.36.09-.57-.05-.28-.12-.55-.23-.79s-.18-.37-.22-.39c-.27-.11-.5-.16-.68-.17-.18,0-.3,0-.37-.01-.19-.03-.42-.07-.67-.14-.26-.06-.51-.1-.75-.11-.27,0-.63.01-1.07.04-.44.03-.87.06-1.29.1-.42.04-.79.08-1.1.12-.31.04-.48.06-.5.06-.42.21-.72.37-.88.47-.17.1-.28.18-.35.24-.07.06-.12.12-.16.18-.04.06-.13.15-.29.27-.07.05-.18.08-.34.09-.16,0-.26.06-.3.15-.02.06-.04.12-.04.18,0,.06-.01.11-.03.16-.03.08-.1.15-.2.19s-.2.09-.3.12c-.1.04-.21.08-.3.12-.1.04-.16.1-.19.18-.05.12-.08.28-.11.49-.03.21-.05.42-.07.64-.02.22-.03.44-.03.64,0,.21,0,.36.03.47,0,.03-.02.05-.04.06-.02.02-.03.04-.04.06-.01.03.03.11.13.22.1.11.17.21.21.29.09.29.22.58.41.86.18.28.38.54.59.78.21.24.43.45.65.62s.42.3.6.37c.14.05.35.07.64.05.29-.02.61-.05.96-.11s.69-.12,1.03-.2c.34-.08.62-.15.85-.23.36-.1.73-.24,1.11-.4.38-.16.65-.36.81-.6.02-.05.06-.08.13-.08.07,0,.12,0,.17,0,.17-.13.27-.26.33-.39s.13-.26.22-.39c.09-.18.22-.36.39-.56s.33-.39.49-.59c.16-.2.31-.4.45-.59s.25-.38.32-.55Z"/>
  </g>
</svg>